<svg width="24" height="24" viewBox="0 0 24 24" fill="none" xmlns="http://www.w3.org/2000/svg">
<path d="M13.2906 14.5258C13.5704 14.526 13.7906 14.7267 13.7906 14.9809V17.2514H15.5904C16.0303 17.2515 16.25 17.7423 15.94 18.0239L12.1499 21.4663C11.9499 21.6477 11.6399 21.6479 11.44 21.4663L7.64994 18.0239C7.32994 17.7423 7.55053 17.2514 8.00053 17.2514H9.79056V14.9809C9.79056 14.7266 10.0106 14.5258 10.2906 14.5258H13.2906ZM4.93998 8.04049C5.24998 7.74981 5.79056 7.95009 5.79056 8.35885V9.98483H8.29056C8.57042 9.98497 8.79056 10.1847 8.79056 10.4389V13.1635C8.79056 13.4178 8.57042 13.6175 8.29056 13.6176H5.79056V15.2436C5.79056 15.6524 5.24998 15.8524 4.93998 15.5708L1.14994 12.1284C0.95006 11.9467 0.94998 11.6645 1.14994 11.4829L4.93998 8.04049ZM17.7906 8.35885C17.7906 7.9502 18.3299 7.75016 18.6499 8.04049L22.44 11.4829C22.63 11.6555 22.6302 11.947 22.4302 12.1196L18.6402 15.562C18.3302 15.8525 17.7906 15.6523 17.7906 15.2436V13.6176H15.2906C15.0106 13.6176 14.7906 13.4179 14.7906 13.1635V10.4389C14.7906 10.1846 15.0106 9.98483 15.2906 9.98483H17.7906V8.35885ZM11.4302 2.13619C11.6302 1.95458 11.9402 1.95463 12.1402 2.13619L15.9302 5.57858C16.2501 5.8601 16.0304 6.35079 15.5806 6.35104H13.7906V8.62154C13.7906 8.8758 13.5704 9.07648 13.2906 9.07662H10.2906C10.0106 9.07662 9.79056 8.87588 9.79056 8.62154V6.35104H8.00053C7.55053 6.35104 7.33017 5.86017 7.64017 5.57858L11.4302 2.13619Z" fill="#133E8F"/>
</svg>
