<svg width="24" height="22" viewBox="0 0 24 22" fill="none" xmlns="http://www.w3.org/2000/svg">
<path d="M11.4546 1.10193C11.7241 0.469361 12.6163 0.430091 12.9634 0.983765L13.0249 1.10193L13.0259 1.10388L15.5835 7.05017C15.6565 7.21985 15.8174 7.33556 16.0015 7.35095L22.5376 7.89783H22.5405C23.2501 7.95346 23.5485 8.76374 23.1216 9.25818L23.0269 9.35193L23.0259 9.35291L18.0601 13.5922C17.9175 13.7139 17.8548 13.9058 17.8979 14.0883L19.3862 20.3812C19.5407 21.0366 18.8702 21.5987 18.2378 21.3392L18.1128 21.2767L12.4956 17.9301C12.3578 17.8481 12.1906 17.8374 12.0454 17.8988L11.9849 17.9291L6.36865 21.2631H6.36768C5.74432 21.6348 5.02539 21.1371 5.07373 20.4974L5.09424 20.3676L6.58252 14.0746C6.62566 13.8922 6.56294 13.7012 6.42041 13.5795L1.45361 9.33923L1.35889 9.24451C0.960477 8.78306 1.19357 8.04709 1.80322 7.90564L1.93994 7.88416H1.94189L8.479 7.33728C8.66278 7.32186 8.8229 7.20678 8.896 7.03748L11.4546 1.10388V1.10193Z" fill="#FFBA79" stroke="#FFBA79" stroke-linejoin="round"/>
</svg>
