<svg width="17" height="17" viewBox="0 0 17 17" fill="none" xmlns="http://www.w3.org/2000/svg">
<g clip-path="url(#clip0_22_1427)">
<path d="M7.62521 0.541843C7.91416 -0.180615 8.89835 -0.180614 9.18727 0.541845L10.8927 4.80592C11.0146 5.11049 11.2901 5.3186 11.6063 5.34496L16.033 5.71402C16.783 5.77654 17.0871 6.74989 16.5157 7.25893L13.143 10.2633C12.9021 10.4779 12.7968 10.8147 12.8705 11.1354L13.9008 15.6277C14.0754 16.3887 13.2793 16.9904 12.6371 16.5825L8.84716 14.1752C8.57648 14.0032 8.23602 14.0032 7.96532 14.1752L4.17538 16.5825C3.53324 16.9904 2.73704 16.3887 2.91161 15.6277L3.94204 11.1354C4.01565 10.8147 3.91044 10.4779 3.66955 10.2633L0.296793 7.25893C-0.274647 6.74989 0.029479 5.77654 0.779504 5.71402L5.20629 5.34496C5.52248 5.3186 5.79792 5.11049 5.91974 4.80592L7.62521 0.541843Z" fill="#FE8D63"/>
</g>
<defs>
<clipPath id="clip0_22_1427">
<rect width="16.8125" height="16.8125" fill="white" transform="translate(0 0.118164)"/>
</clipPath>
</defs>
</svg>
